# xmcd
#
# Track frame offsets:
#	150
#	8145
#	18017
#	27677
#	39562
#	49567
#	60232
#	72192
#	84937
#	96267
#	109230
#	119675
#	134362
#	144267
#	155060
#	167300
#	178390
#	189742
#
# Disc length: 2636
#
# Revision: 1
# Processed by: cddbd v1.5.1PL0 Copyright (c) Steve Scherf et al.
# Submitted via: CDex 1.40Beta8
# Normalized: r0:TDELIM( - )
#
DISCID=ef0a4a12
DTITLE=Various Artist - The Best Of Country Music Vol 1
DYEAR=1900
DGENRE=Country
TTITLE0=Roger Miller - Do Wacka Do
TTITLE1=Jeannie C Riley - He Made A Woman Out Of Me
TTITLE2=T Texas Tyler - Careless Love
TTITLE3=Jerry Wallace - There She Goes
TTITLE4=Carl Perkins - Everybody´s Trying To Be My Baby
TTITLE5=Johnny Cash - Lonesome Whistle (i Heard That)
TTITLE6=Webb Pierce - High Geared Daddy
TTITLE7=Lester Flatt and Earl Scruggs - Bouquet In Heaven
TTITLE8=Carl Belew - Little Miss Heartache
TTITLE9=Faron Young - I´m A Free Man Now
TTITLE10=Jerry Lee Lewis - Will The Circle Be Unbroken
TTITLE11=George Jones - Cold Cold Heart
TTITLE12=Johnny Cash - Get Rhythm
TTITLE13=Hank Locklin - Crazy Over You
TTITLE14=Johnny Horton - Done Rovin´
TTITLE15=Glen Campbell - Man With The Golden Gun (instrumental)
TTITLE16=Patsy Cline - In Care Of The Blues
TTITLE17=Roger Miller - Dear Heart
EXTD=ID3G: 2
EXTT0=
EXTT1=
EXTT2=
EXTT3=
EXTT4=
EXTT5=
EXTT6=
EXTT7=
EXTT8=
EXTT9=
EXTT10=
EXTT11=
EXTT12=
EXTT13=
EXTT14=
EXTT15=
EXTT16=
EXTT17=
PLAYORDER=
